<?xml version="1.0" encoding="iso-8859-1"?>
<!-- Generator: Adobe Illustrator 18.0.0, SVG Export Plug-In . SVG Version: 6.00 Build 0)  -->
<!DOCTYPE svg PUBLIC "-//W3C//DTD SVG 1.1//EN" "http://www.w3.org/Graphics/SVG/1.1/DTD/svg11.dtd">
<svg version="1.1" id="Layer_1" xmlns="http://www.w3.org/2000/svg" xmlns:xlink="http://www.w3.org/1999/xlink" x="0px" y="0px"
	 viewBox="0 0 1280 1280" style="enable-background:new 0 0 1280 1280;" xml:space="preserve">
<g id="Layer_1_1_">
	<circle style="fill:#FFB733;" cx="643.004" cy="641.864" r="636.996"/>
</g>
<g id="Layer_2">
	<g>
		<path d="M341.897,388.833c0.264,5.449,0.876,12.169,1.824,20.185c0.948,8.016,1.428,16.105,1.428,24.266
			c-0.276,14.677-3.744,26.366-10.417,35.067s-18.721,13.045-36.147,13.045c-14.437,0-25.262-4.416-32.474-13.249
			c-7.224-8.833-10.825-19.106-10.825-30.806c0-10.597,3.324-21.674,9.985-33.231c6.648-11.557,15.817-22.094,27.494-31.623
			c12.217-10.333,27.902-18.83,47.056-25.49c19.154-6.661,40.816-9.997,64.997-9.997c33.939,0,62.933,6.253,86.971,18.734
			c24.038,12.493,43.935,29.331,59.704,50.5c15.481,21.182,26.81,45.352,34.011,72.498c7.201,27.146,10.801,55.661,10.801,85.519
			c0,37.203-4.896,78.199-14.677,122.998s-24.722,85.255-44.823,121.354c-25.274,45.352-53.86,79.086-85.783,101.216
			C419.098,931.936,384.656,943,347.717,943c-50.272,0-89.131-15.602-116.566-46.828C203.717,864.958,190,823.963,190,773.199
			c0-56.452,19.466-106.4,58.421-149.844c38.955-43.432,82.039-65.153,129.262-65.153c33.387,0,60.869,6.313,82.447,18.937
			c21.578,12.625,38.475,30.878,50.692,54.76c1.356-11.941,2.376-23.75,3.048-35.427c0.672-11.665,1.02-25.238,1.02-40.72
			c0-23.342-1.896-47.092-5.688-71.261c-3.793-24.158-9.613-44.104-17.461-59.849c-8.401-17.377-19.765-30.951-34.107-40.72
			c-14.353-9.769-32.222-14.665-53.608-14.665c-14.617,0-27.002,2.04-37.155,6.121C356.718,379.46,348.39,383.937,341.897,388.833z
			 M450.998,833.48c11.389-20.053,21.362-43.024,29.907-68.91c8.545-25.886,14.317-47.776,17.305-65.681
			c-0.816-12.193-2.989-23.498-6.516-33.939c-3.528-10.441-9.361-20.27-17.497-29.487c-7.608-8.941-17.173-15.986-28.694-21.145
			c-11.533-5.148-25.166-7.729-40.899-7.729c-35.283,0-66.557,19.189-93.823,57.545c-27.266,38.355-40.899,83.155-40.899,134.375
			c0,15.733,1.152,30.038,3.456,42.903c2.304,12.877,6.588,24.734,12.829,35.583c5.965,10.297,14.029,18.506,24.206,24.602
			c10.177,6.096,22.73,9.145,37.659,9.145c21.158,0,40.491-7.309,57.989-21.95C423.517,874.15,438.517,855.718,450.998,833.48z"/>
		<path d="M1090,566.747c0,14.941-60.341,64.469-180.998,148.572c32.067,108.273,61.001,162.397,86.827,162.397
			c9.505,0,18.89-4.212,28.13-12.637c0,0.552,0.264,1.368,0.816,2.449v2.856c0,16.609-12.229,32.691-36.687,48.232
			c-22.286,14.713-42.256,22.082-59.921,22.082c-16.85,0-44.439-60.785-82.759-182.378c-27.722,16.85-54.496,36.699-80.311,59.525
			c-35.067,31.527-52.588,57.34-52.588,77.454c0,10.621,5.293,15.925,15.901,15.925c8.425,0,17.113-2.592,26.09-7.777
			c-2.184,6.817-6.936,13.621-14.269,20.414c-2.724,2.724-17.305,6.469-43.756,11.233c-26.451,4.753-43.479,7.141-51.064,7.141
			c-10.561,0-15.854-4.212-15.854-12.625c0-29.054,69.774-92.468,209.32-190.227c-31.251-101.84-50.824-152.76-58.697-152.76
			c-10.609,0-22.562,5.029-35.871,15.086V589.07c31.791-29.786,65.49-44.692,101.096-44.692c7.333,0,26.498,50.668,57.485,152.004
			c63.581-52.996,95.384-86.143,95.384-99.464c0-7.885-4.489-11.833-13.453-11.833c-4.896,0-10.729,1.356-17.522,4.068v-11.401
			c55.708-15.758,91.303-23.642,106.797-23.642C1084.695,554.11,1090,558.322,1090,566.747z"/>
	</g>
</g>
</svg>
