<?xml version="1.0" encoding="iso-8859-1"?>
<!-- Generator: Adobe Illustrator 18.0.0, SVG Export Plug-In . SVG Version: 6.00 Build 0)  -->
<!DOCTYPE svg PUBLIC "-//W3C//DTD SVG 1.1//EN" "http://www.w3.org/Graphics/SVG/1.1/DTD/svg11.dtd">
<svg version="1.1" id="Layer_1" xmlns="http://www.w3.org/2000/svg" xmlns:xlink="http://www.w3.org/1999/xlink" x="0px" y="0px"
	 viewBox="0 0 1280 1280" style="enable-background:new 0 0 1280 1280;" xml:space="preserve">
<g id="Layer_1_1_">
	<circle style="fill:#FEE169;" cx="640" cy="640" r="640"/>
</g>
<g id="Layer_2">
	<g>
		<path d="M1089.999,976.189l-368.205-27.666c-13.427,7.271-26.567,12.786-39.429,16.558c-12.864,3.772-25.309,5.66-37.335,5.66
			c-12.301,0-25.519-1.887-39.64-5.66s-29.153-9.287-45.089-16.558L190,976.189V393.517l78.028-4.611l30.49-59.106
			c32.959-8.659,64.175-15.156,93.643-19.492c29.468-4.33,57.056-6.497,82.757-6.497c44.689,0,79.672,5.803,104.955,17.396
			c25.282,11.6,45.181,31.092,59.708,58.477c13.139-26.828,32.991-46.176,59.558-58.057c26.567-11.875,63.054-17.815,109.48-17.815
			c23.762,0,49.836,2.168,78.225,6.497c28.381,4.336,59.209,10.833,92.49,19.492l28.505,54.495l82.161,4.611L1089.999,976.189
			L1089.999,976.189z M1069.458,953.972V407.351l-51.98-2.935l20.541,33.955v481.228l-335.941-20.96
			c-16.217,13.696-36.914,20.541-62.079,20.541c-24.889,0-45.305-6.845-61.24-20.541l-337.198,20.96V438.371l15.201-29.763
			l-46.222,2.515v542.849l356.475-26.41c13.977,7.546,27.404,13.205,40.269,16.977c12.863,3.773,25.308,5.66,37.335,5.66
			c11.187,0,22.649-1.886,34.392-5.66c11.744-3.773,23.908-9.432,36.496-16.977L1069.458,953.972z M262.1,442.562v437.214
			l41.5-80.065V367.108L262.1,442.562z M278.193,898.639l306.434-24.313c8.947,11.463,23.907,19.564,44.887,24.313
			c-3.917-35.212-17.542-60.429-40.885-75.663c-23.343-15.228-60.029-22.846-110.063-22.846c-23.206,0-48.155,1.611-74.852,4.821
			c-26.697,3.215-55.136,8.037-85.324,14.463L278.193,898.639z M324.14,796.776c32.461-5.868,61.215-10.199,86.261-12.995
			c25.047-2.789,46.379-4.191,64.011-4.191c71.918,0,123.694,17.33,155.317,51.979V441.305c0-39.122-12.176-68.393-36.522-87.82
			c-24.346-19.42-61.005-29.134-109.978-29.134c-25.191,0-51.004,1.749-77.445,5.24c-26.448,3.498-53.663,8.738-81.644,15.719
			L324.14,796.776L324.14,796.776z M955.438,344.473c-30.744-6.707-59.105-11.738-85.096-15.091
			c-25.989-3.354-49.608-5.031-70.842-5.031c-51.705,0-90.826,10.624-117.373,31.858c-21.241,16.768-31.859,45.416-31.859,85.934
			v391.103c19.283-20.395,39.824-34.439,61.622-42.128c21.798-7.683,51.834-11.528,90.125-11.528
			c25.426,0,50.932,1.467,76.502,4.401c25.57,2.934,51.206,7.479,76.921,13.624V344.473z M1004.903,898.639l-40.242-77.968
			c-32.423-6.982-62.532-12.157-90.336-15.51c-27.811-3.354-53.171-5.031-76.082-5.031c-98.653,0-147.975,32.841-147.975,98.509
			c20.606-3.354,36.339-11.592,47.199-24.731L1004.903,898.639z M975.978,368.785v430.926l41.499,77.968V447.174L975.978,368.785z"
			/>
	</g>
</g>
</svg>
