<?xml version="1.0" encoding="iso-8859-1"?>
<!-- Generator: Adobe Illustrator 18.0.0, SVG Export Plug-In . SVG Version: 6.00 Build 0)  -->
<!DOCTYPE svg PUBLIC "-//W3C//DTD SVG 1.1//EN" "http://www.w3.org/Graphics/SVG/1.1/DTD/svg11.dtd">
<svg version="1.1" id="Layer_1" xmlns="http://www.w3.org/2000/svg" xmlns:xlink="http://www.w3.org/1999/xlink" x="0px" y="0px"
	 viewBox="0 0 1280 1280" style="enable-background:new 0 0 1280 1280;" xml:space="preserve">
<g id="Layer_1_1_">
	<circle style="fill:#D35971;" cx="640" cy="640" r="640"/>
</g>
<g id="Layer_2">
	<g>
		<path d="M249.287,823.418h225.64L333.036,489.112l-150.888,355.07H160l173.036-408.365l173.036,408.365H249.287V823.418z"/>
		<path d="M564.901,681.53v-20.764h78.904v-78.905h20.765v78.905h78.905v20.764H664.57v78.904h-20.765V681.53H564.901z"/>
		<path d="M954.578,844.183h-99.67V442.739h76.136c54.442,0,95.624,9.463,123.547,28.378c27.914,18.926,41.875,44.762,41.875,77.52
			c0,39.225-17.304,67.603-51.911,85.134c25.371,8.77,44.297,21.803,56.757,39.106c12.458,17.304,18.688,37.268,18.688,59.87
			c0,33.223-13.734,60.109-41.183,80.635C1051.359,833.92,1009.95,844.183,954.578,844.183z M954.578,823.418
			c40.598,0,74.86-7.375,102.784-22.149c27.912-14.762,41.875-37.603,41.875-68.522c0-14.297-5.311-29.87-15.919-46.719
			c-10.62-16.839-26.994-29.178-49.143-37.03l-35.992-12.459l33.223-17.304c11.527-5.991,21.802-15.108,30.8-27.34
			c8.998-12.22,13.498-26.648,13.498-43.259c0-29.07-13.844-50.527-41.529-64.369c-27.685-13.843-62.066-20.764-103.13-20.764
			h-55.371v359.915L954.578,823.418L954.578,823.418z"/>
	</g>
</g>
</svg>
