<?xml version="1.0" encoding="iso-8859-1"?>
<!-- Generator: Adobe Illustrator 18.0.0, SVG Export Plug-In . SVG Version: 6.00 Build 0)  -->
<!DOCTYPE svg PUBLIC "-//W3C//DTD SVG 1.1//EN" "http://www.w3.org/Graphics/SVG/1.1/DTD/svg11.dtd">
<svg version="1.1" id="Layer_1" xmlns="http://www.w3.org/2000/svg" xmlns:xlink="http://www.w3.org/1999/xlink" x="0px" y="0px"
	 viewBox="0 0 1280 1280" style="enable-background:new 0 0 1280 1280;" xml:space="preserve">
<g id="Layer_1_1_">
	<circle style="fill:#F9722E;" cx="640" cy="640" r="640"/>
</g>
<g id="Layer_2">
	<g>
		<path d="M1040,1047.517H865.1c-63.727-84.549-159.688-210.979-287.914-379.275l-70.316,2.404v376.871H240V232.483h363.039
			c89.342,0,161.676,13.624,216.974,40.872c73.73,36.465,110.595,94.76,110.595,174.901c0,60.106-22.84,108.799-68.521,146.064
			c-39.67,32.457-91.153,52.686-154.464,60.699L1040,1047.517z M382.444,1001.837V279.365h-93.157v722.472L382.444,1001.837
			L382.444,1001.837z M795.97,449.457c0-66.517-23.849-113.192-71.519-140.04c-36.479-20.837-90.574-31.255-162.285-31.255
			c-21.252,0-35.782,4.319-43.588,12.926c-7.807,8.607-11.709,23.938-11.709,45.977v288.508
			c84.148-2.404,147.252-12.422,189.326-30.053C762.712,567.873,795.97,519.18,795.97,449.457z"/>
	</g>
</g>
</svg>
