<?xml version="1.0" encoding="iso-8859-1"?>
<!-- Generator: Adobe Illustrator 18.0.0, SVG Export Plug-In . SVG Version: 6.00 Build 0)  -->
<!DOCTYPE svg PUBLIC "-//W3C//DTD SVG 1.1//EN" "http://www.w3.org/Graphics/SVG/1.1/DTD/svg11.dtd">
<svg version="1.1" id="Layer_1" xmlns="http://www.w3.org/2000/svg" xmlns:xlink="http://www.w3.org/1999/xlink" x="0px" y="0px"
	 viewBox="0 0 1280 1280" style="enable-background:new 0 0 1280 1280;" xml:space="preserve">
<g id="Layer_1_1_">
	<circle style="fill:#0089C6;" cx="640" cy="640" r="640"/>
</g>
<g id="Layer_2">
	<g>
		<path d="M442.999,564.262l4.083,96.766c1.901,41.646,2.858,76.759,2.858,105.34c0,39.745-2.59,76.082-7.758,109.013
			c-5.174,32.932-14.635,61.04-28.377,84.313c-13.748,23.272-28.581,39.33-44.503,48.179c-15.924,8.842-33.685,13.269-53.283,13.269
			c-20.689,0-35.86-4.427-45.525-13.269C260.836,999.023,256,987.929,256,974.596c0-11.707,3.471-20.555,10.412-26.539
			c6.94-5.99,15.311-8.983,25.11-8.983c9.251,0,16.332,2.176,21.231,6.533c4.9,4.351,9.525,12.108,13.882,23.272
			c4.351,11.158,10.75,16.741,19.19,16.741c11.432,0,20.274-8.44,26.539-25.314c6.258-16.88,9.391-69.818,9.391-158.826
			c0-20.141-0.549-42.462-1.633-66.96l-2.858-71.86l-3.266-95.949c-1.091-33.48-1.633-60.019-1.633-79.617
			c0-40.013,2.379-71.993,7.145-95.948c4.759-23.949,13.678-46.75,26.743-68.388c13.065-21.64,28.032-37.697,44.912-48.179
			c16.874-10.476,35.521-15.719,55.936-15.719c15.783,0,29.531,3.879,41.238,11.637c11.7,7.757,17.556,19.802,17.556,36.134
			c0,11.165-3.471,20.077-10.411,26.743c-6.941,6.672-15.312,10.003-25.11,10.003c-9.257,0-16.676-2.175-22.252-6.533
			c-5.583-4.351-10.277-11.84-14.087-22.456c-2.45-7.075-4.9-11.975-7.35-14.698c-2.45-2.718-5.99-4.083-10.615-4.083
			c-11.707,0-20.619,10.411-26.743,31.235c-6.125,20.823-9.187,72.338-9.187,154.538
			C440.141,493.628,441.092,521.257,442.999,564.262z"/>
		<path d="M672.05,564.262l4.084,96.766c1.9,41.646,2.857,76.759,2.857,105.34c0,39.745-2.59,76.082-7.757,109.013
			c-5.174,32.932-14.635,61.04-28.377,84.313c-13.747,23.272-28.58,39.33-44.503,48.179c-15.924,8.842-33.685,13.269-53.283,13.269
			c-20.688,0-35.86-4.427-45.525-13.269c-9.659-8.848-14.495-19.942-14.495-33.276c0-11.707,3.471-20.555,10.412-26.539
			c6.94-5.99,15.311-8.983,25.11-8.983c9.251,0,16.331,2.176,21.231,6.533c4.9,4.351,9.525,12.108,13.882,23.272
			c4.351,11.158,10.75,16.741,19.19,16.741c11.432,0,20.274-8.44,26.539-25.314c6.258-16.88,9.391-69.818,9.391-158.826
			c0-20.141-0.549-42.462-1.633-66.96l-2.858-71.86l-3.267-95.949c-1.091-33.48-1.633-60.019-1.633-79.617
			c0-40.013,2.379-71.993,7.145-95.948c4.759-23.949,13.678-46.75,26.743-68.388c13.065-21.64,28.031-37.697,44.911-48.179
			c16.875-10.476,35.523-15.719,55.937-15.719c15.784,0,29.532,3.879,41.238,11.637c11.7,7.757,17.556,19.802,17.556,36.134
			c0,11.165-3.471,20.077-10.41,26.743c-6.941,6.672-15.312,10.003-25.111,10.003c-9.258,0-16.676-2.175-22.251-6.533
			c-5.583-4.351-10.277-11.84-14.088-22.456c-2.449-7.075-4.9-11.975-7.349-14.698c-2.451-2.718-5.991-4.083-10.616-4.083
			c-11.707,0-20.618,10.411-26.743,31.235c-6.125,20.823-9.188,72.338-9.188,154.538
			C669.193,493.628,670.143,521.257,672.05,564.262z"/>
		<path d="M901.103,564.262l4.084,96.766c1.9,41.646,2.857,76.759,2.857,105.34c0,39.745-2.59,76.082-7.757,109.013
			c-5.174,32.932-14.635,61.04-28.377,84.313c-13.747,23.272-28.581,39.33-44.503,48.179c-15.924,8.842-33.685,13.269-53.283,13.269
			c-20.689,0-35.86-4.427-45.525-13.269c-9.658-8.848-14.494-19.942-14.494-33.276c0-11.707,3.47-20.555,10.411-26.539
			c6.94-5.99,15.311-8.983,25.11-8.983c9.251,0,16.332,2.176,21.231,6.533c4.9,4.351,9.525,12.108,13.882,23.272
			c4.351,11.158,10.75,16.741,19.191,16.741c11.432,0,20.274-8.44,26.538-25.314c6.258-16.88,9.391-69.818,9.391-158.826
			c0-20.141-0.549-42.462-1.633-66.96l-2.858-71.86l-3.266-95.949c-1.091-33.48-1.633-60.019-1.633-79.617
			c0-40.013,2.38-71.993,7.145-95.948c4.759-23.949,13.678-46.75,26.743-68.388c13.065-21.64,28.031-37.697,44.911-48.179
			c16.874-10.476,35.522-15.719,55.937-15.719c15.784,0,29.531,3.879,41.238,11.637c11.7,7.757,17.556,19.802,17.556,36.134
			c0,11.165-3.471,20.077-10.411,26.743c-6.941,6.672-15.311,10.003-25.11,10.003c-9.258,0-16.676-2.175-22.252-6.533
			c-5.583-4.351-10.277-11.84-14.087-22.456c-2.45-7.075-4.9-11.975-7.35-14.698c-2.45-2.718-5.99-4.083-10.615-4.083
			c-11.707,0-20.619,10.411-26.743,31.235c-6.125,20.823-9.187,72.338-9.187,154.538
			C898.246,493.628,899.196,521.257,901.103,564.262z"/>
	</g>
</g>
</svg>
