<?xml version="1.0" encoding="iso-8859-1"?>
<!-- Generator: Adobe Illustrator 18.0.0, SVG Export Plug-In . SVG Version: 6.00 Build 0)  -->
<!DOCTYPE svg PUBLIC "-//W3C//DTD SVG 1.1//EN" "http://www.w3.org/Graphics/SVG/1.1/DTD/svg11.dtd">
<svg version="1.1" id="Layer_1" xmlns="http://www.w3.org/2000/svg" xmlns:xlink="http://www.w3.org/1999/xlink" x="0px" y="0px"
	 viewBox="0 0 1280 1280" style="enable-background:new 0 0 1280 1280;" xml:space="preserve">
<g id="Layer_1_1_">
	<circle style="fill:#289976;" cx="640" cy="640" r="640"/>
</g>
<g id="Layer_2">
	<g>
		<path d="M639.991,595.757c35.855-34.494,70.347-63.876,103.479-88.166c33.132-24.274,61.052-40.511,83.745-48.68
			c22.693-8.17,47.42-12.255,74.198-12.255c56.279,0,101.765,18.726,136.494,56.178S1090,585.554,1090,638.638
			c0,36.309-7.716,69.894-23.147,100.757c-15.432,30.863-37.334,54.245-65.708,70.13c-28.375,15.885-60.935,23.82-97.68,23.82
			c-47.672,0-89.31-10.203-124.929-30.627c-35.636-20.424-81.812-59.003-138.544-115.735
			C580.99,745.53,534.007,784.562,499.06,804.078s-75.559,29.265-121.853,29.265c-59.002,0-104.959-18.373-137.856-55.135
			C206.439,741.445,190,694.916,190,638.638c0-52.648,17.347-97.798,52.076-135.468c34.712-37.67,80.216-56.513,136.494-56.513
			c27.232,0,52.194,4.085,74.886,12.255c22.692,8.17,50.479,24.408,83.393,48.68C569.761,531.88,604.137,561.263,639.991,595.757z
			 M595.749,637.965c-32.678-27.685-61.96-50.496-87.83-68.415s-48.563-30.745-68.078-38.46
			c-19.515-7.716-40.847-11.582-63.994-11.582c-33.132,0-60.582,11.582-82.367,34.728s-32.678,52.648-32.678,88.485
			c0,24.979,5.665,46.076,17.012,63.322c11.347,17.246,25.299,30.643,41.873,40.175c16.558,9.531,37.318,14.288,62.297,14.288
			c32.678,0,64.448-8.624,95.31-25.87S547.641,685.167,595.749,637.965z M684.251,637.965
			c48.109,47.655,87.696,79.997,118.793,97.008c31.081,17.028,62.061,25.533,92.923,25.533c38.578,0,68.768-11.448,90.553-34.375
			c21.785-22.928,32.678-50.731,32.678-83.41c0-35.839-10.791-65.457-32.342-88.838c-21.567-23.366-50.042-35.065-85.443-35.065
			c-19.97,0-39.267,3.53-57.875,10.557c-18.608,7.043-40.847,19.298-66.717,36.763C750.952,583.619,720.089,607.556,684.251,637.965
			z"/>
	</g>
</g>
</svg>
