<?xml version="1.0" encoding="iso-8859-1"?>
<!-- Generator: Adobe Illustrator 18.0.0, SVG Export Plug-In . SVG Version: 6.00 Build 0)  -->
<!DOCTYPE svg PUBLIC "-//W3C//DTD SVG 1.1//EN" "http://www.w3.org/Graphics/SVG/1.1/DTD/svg11.dtd">
<svg version="1.1" xmlns="http://www.w3.org/2000/svg" xmlns:xlink="http://www.w3.org/1999/xlink" x="0px" y="0px"
	 viewBox="0 0 1280 1280" style="enable-background:new 0 0 1280 1280;" xml:space="preserve">
<g id="Layer_1">
	<circle style="fill:#ED9355;" cx="640" cy="640" r="640"/>
</g>
<g id="Layer_3">
	<path d="M916.923,240H363.077C295.114,240,240,295.089,240,363.077v553.846C240,984.911,295.114,1040,363.077,1040h553.846
		C984.886,1040,1040,984.911,1040,916.923V363.077C1040,295.089,984.886,240,916.923,240z M451.594,909.834
		c-43.692,0-79.089-35.397-79.089-79.114c0-43.717,35.397-79.114,79.089-79.114c43.668,0,79.089,35.397,79.089,79.114
		C530.683,874.437,495.286,909.834,451.594,909.834z M451.594,528.394c-43.692,0-79.089-35.397-79.089-79.114
		s35.397-79.114,79.089-79.114c43.668,0,79.089,35.397,79.089,79.114S495.286,528.394,451.594,528.394z M640,719.114
		c-43.668,0-79.089-35.397-79.089-79.114s35.397-79.114,79.089-79.114s79.089,35.397,79.089,79.114S683.643,719.114,640,719.114z
		 M828.406,909.834c-43.668,0-79.089-35.397-79.089-79.114c0-43.717,35.397-79.114,79.089-79.114
		c43.668,0,79.089,35.397,79.089,79.114C907.495,874.437,872.099,909.834,828.406,909.834z M828.406,528.394
		c-43.668,0-79.089-35.397-79.089-79.114s35.397-79.114,79.089-79.114c43.668,0,79.089,35.397,79.089,79.114
		S872.099,528.394,828.406,528.394z"/>
	<g>
	</g>
	<g>
	</g>
	<g>
	</g>
	<g>
	</g>
	<g>
	</g>
	<g>
	</g>
	<g>
	</g>
	<g>
	</g>
	<g>
	</g>
	<g>
	</g>
	<g>
	</g>
	<g>
	</g>
	<g>
	</g>
	<g>
	</g>
	<g>
	</g>
</g>
</svg>
