<?xml version="1.0" encoding="iso-8859-1"?>
<!-- Generator: Adobe Illustrator 18.0.0, SVG Export Plug-In . SVG Version: 6.00 Build 0)  -->
<!DOCTYPE svg PUBLIC "-//W3C//DTD SVG 1.1//EN" "http://www.w3.org/Graphics/SVG/1.1/DTD/svg11.dtd">
<svg version="1.1" id="Layer_1" xmlns="http://www.w3.org/2000/svg" xmlns:xlink="http://www.w3.org/1999/xlink" x="0px" y="0px"
	 viewBox="0 0 1280 900" style="enable-background:new 0 0 1280 900;" xml:space="preserve">
<g id="Layer_1">
	
		<image style="overflow:visible;opacity:0.75;" width="1290" height="882" xlink:href="7B40C133.png"  transform="matrix(1 0 0 1 2 16.2273)">
	</image>
	<g>
		<g>
			<g>
				<path style="fill:#FFFFFF;" d="M57.652,692.871c-4.514,19.958-4.646,41.229,1.291,60.646
					c25.601,83.734,135.36,60.794,230.659,38.293l670.897-149.38c126.75-28.136,263.355,15.026,298.973,131.527
					c9.646,31.552,12.383,66.544,6.354,98.907l-41.601-5.858c3.502-27.61,1.778-54.95-6.014-80.435
					c-27.084-88.589-140.523-95.044-241.047-72.272L306.266,863.681c-121.524,27.865-255.563,10.457-288.584-97.549
					c-8.162-26.697-9.414-56.835-0.688-84.716L57.652,692.871z"/>
				<path style="fill:#FFFFFF;" d="M57.652,388.082c-4.514,19.958-4.646,41.229,1.291,60.646
					c25.601,83.734,135.36,60.794,230.659,38.293l670.897-149.38c126.75-28.136,263.355,15.026,298.973,131.527
					c9.646,31.552,12.383,66.544,6.354,98.907l-41.601-5.858c3.502-27.61,1.778-54.95-6.014-80.435
					c-27.084-88.589-140.523-95.044-241.047-72.272L306.266,558.892c-121.524,27.864-255.563,10.457-288.584-97.549
					c-8.162-26.697-9.414-56.835-0.688-84.716L57.652,388.082z"/>
				<path style="fill:#FFFFFF;" d="M57.652,83.294c-4.514,19.958-4.646,41.229,1.291,60.646
					c25.601,83.734,135.36,60.794,230.659,38.293L960.499,32.853c126.75-28.135,263.355,15.027,298.973,131.528
					c9.646,31.552,12.383,66.544,6.354,98.907l-41.601-5.859c3.502-27.609,1.778-54.949-6.014-80.434
					c-27.084-88.589-140.523-95.043-241.047-72.272L306.266,254.104c-121.524,27.864-255.563,10.457-288.584-97.549
					C9.52,129.858,8.268,99.72,16.994,71.839L57.652,83.294z"/>
			</g>
		</g>
	</g>
</g>
</svg>
