<?xml version="1.0" encoding="utf-8"?>
<!-- Generator: Adobe Illustrator 18.0.0, SVG Export Plug-In . SVG Version: 6.00 Build 0)  -->
<!DOCTYPE svg PUBLIC "-//W3C//DTD SVG 1.1//EN" "http://www.w3.org/Graphics/SVG/1.1/DTD/svg11.dtd">
<svg version="1.1" id="Layer_1" xmlns="http://www.w3.org/2000/svg" xmlns:xlink="http://www.w3.org/1999/xlink" x="0px" y="0px"
	 viewBox="0 0 1280 1280" enable-background="new 0 0 1280 1280" xml:space="preserve">
<g>
	<polygon fill="#858585" points="1118.3,319.4 1113.2,1254.5 1014.9,1062.9 1013.8,379.8 	"/>
	<polygon fill="#4F4F4F" points="1229.5,141.5 1229.5,1187.7 1113.3,1254.2 1112.4,322.7 	"/>
	<polygon fill="#4F4F4F" points="161.7,318.2 166.8,1253.3 265.1,1061.7 266.2,378.7 	"/>
	<polygon fill="#858585" points="50.5,140.3 50.5,1186.5 166.7,1253.1 167.6,321.6 	"/>
	<polygon fill="#858585" points="925.8,238.3 1037.9,240.1 572.6,1046.4 50.5,140.6 117.1,25.5 573.1,849.9 	"/>
	<polygon fill="#4F4F4F" points="294.4,136.8 1229.5,141.8 705,1047.4 572,1046.4 1037.9,240.1 354.9,241.3 	"/>
	<polygon fill="#DADADA" points="116.5,25.5 1162.7,25.5 1229.3,141.7 297.7,142.6 641.1,735.1 573.1,849.9 	"/>
</g>
</svg>
