<?xml version="1.0" encoding="iso-8859-1"?>
<!-- Generator: Adobe Illustrator 18.0.0, SVG Export Plug-In . SVG Version: 6.00 Build 0)  -->
<!DOCTYPE svg PUBLIC "-//W3C//DTD SVG 1.1//EN" "http://www.w3.org/Graphics/SVG/1.1/DTD/svg11.dtd">
<svg version="1.1" id="Layer_1" xmlns="http://www.w3.org/2000/svg" xmlns:xlink="http://www.w3.org/1999/xlink" x="0px" y="0px"
	 viewBox="0 0 210 210" style="enable-background:new 0 0 210 210;" xml:space="preserve">
<g>
	<polygon style="fill:#F2594B;" points="183.469,52.396 182.635,205.813 166.51,174.375 166.323,62.317 	"/>
	<polygon style="fill:#325A66;" points="201.719,23.208 201.719,194.854 182.656,205.771 182.51,52.942 	"/>
	<polygon style="fill:#325A66;" points="26.531,52.208 27.365,205.625 43.49,174.188 43.677,62.13 	"/>
	<polygon style="fill:#F2594B;" points="8.281,23.021 8.281,194.667 27.344,205.584 27.49,52.755 	"/>
	<polygon style="fill:#F2594B;" points="151.885,39.104 170.281,39.396 93.948,171.667 8.281,23.063 19.219,4.188 94.031,139.438 	
		"/>
	<polygon style="fill:#325A66;" points="48.302,22.438 201.719,23.271 115.656,171.833 93.844,171.667 170.281,39.396 
		58.223,39.583 	"/>
	<polygon style="fill:#F2D8A7;" points="19.115,4.188 190.76,4.188 201.677,23.25 48.849,23.396 105.177,120.604 94.031,139.438 	
		"/>
</g>
</svg>
